<!DOCTYPE svg PUBLIC "-//W3C//DTD SVG 1.1//EN" "http://www.w3.org/Graphics/SVG/1.1/DTD/svg11.dtd">
<!-- Uploaded to: SVG Repo, www.svgrepo.com, Transformed by: SVG Repo Mixer Tools -->
<svg fill="#000000" height="800px" width="800px" version="1.1" id="Layer_1" xmlns="http://www.w3.org/2000/svg" xmlns:xlink="http://www.w3.org/1999/xlink" viewBox="0 0 512 512" xml:space="preserve">
<g id="SVGRepo_bgCarrier" stroke-width="0"/>
<g id="SVGRepo_tracerCarrier" stroke-linecap="round" stroke-linejoin="round"/>
<g id="SVGRepo_iconCarrier"> <path d="M358.952,263.888c0,25.007,20.345,45.352,45.354,45.352s45.354-20.345,45.354-45.353c0-18.669-11.341-34.735-27.493-41.683 c0-8.744,0-195.29,0-204.345c0-9.864-7.997-17.86-17.86-17.86H80.201c-9.864,0-17.86,7.997-17.86,17.86v84.217 c0,9.864,7.997,17.86,17.86,17.86h82.522v272.126H80.201c-9.864,0-17.86,7.997-17.86,17.86v84.216c0,9.864,7.997,17.86,17.86,17.86 h324.104c9.864,0,17.86-7.997,17.86-17.86v-84.217c0-9.864-7.997-17.86-17.86-17.86h-82.522V119.938h64.662v102.268 C370.293,229.153,358.952,245.218,358.952,263.888z M404.306,273.52c-5.312,0-9.633-4.321-9.633-9.632 c0-5.312,4.321-9.633,9.633-9.633s9.633,4.321,9.633,9.633C413.939,269.199,409.618,273.52,404.306,273.52z M98.061,35.721h288.383 v48.496c-33.155,0-261.177,0-288.383,0V35.721z M386.446,476.279H98.061v-48.496c27.204,0,255.196,0,288.383,0v48.496H386.446z M286.063,182.091h-31.324c-9.864,0-17.86,7.997-17.86,17.86s7.997,17.86,17.86,17.86h31.324v174.251h-87.619V329.91h31.324 c9.864,0,17.86-7.997,17.86-17.86s-7.997-17.86-17.86-17.86h-31.324V119.938h87.619L286.063,182.091L286.063,182.091z"/> </g>
</svg>